<?xml version="1.0" encoding="UTF-8" standalone="no"?>
<!DOCTYPE svg PUBLIC "-//W3C//DTD SVG 1.1//EN" "http://www.w3.org/Graphics/SVG/1.1/DTD/svg11.dtd">
<svg width="815" height="1142" viewBox="0 0 815 1142" version="1.1" xmlns="http://www.w3.org/2000/svg" xml:space="preserve"
     style="fill-rule:evenodd;clip-rule:evenodd;stroke-linejoin:round;stroke-miterlimit:2;">
    <path id="pin" d="M776.823,1185.28c-48.441,-49.321 -78.37,-116.838 -78.37,-191.566c-0,-151.02 122.47,-273.491 273.491,-273.491c151.019,0 273.489,122.471 273.489,273.491c0,73.993 -29.528,141.1 -77.427,190.38c-2.022,2.469 -47.635,58.171 -65.909,79.732c-15.086,17.842 -46.178,52.715 -46.178,52.715c0,0 -36.997,56.097 -42.563,68.27c-5.565,12.173 -26.878,86.973 -30.15,100.672l-21.996,-0.726c-3.354,-13.961 -24.611,-88.933 -30.145,-101.159c-5.566,-12.173 -42.564,-68.27 -42.564,-68.27c0,-0 -31.092,-37.873 -46.178,-52.715c-16.887,-19.993 -57.11,-69.152 -64.663,-78.484Z"/>
    <circle id="pin-center" cx="1126.12" cy="1088.81" r="128.14" style="fill:rgb(235,235,235);"/>
</svg>
