<?xml version="1.0" encoding="UTF-8" standalone="no"?>
<!DOCTYPE svg PUBLIC "-//W3C//DTD SVG 1.1//EN" "http://www.w3.org/Graphics/SVG/1.1/DTD/svg11.dtd">
<svg width="815" height="1142" viewBox="0 0 815 1142" version="1.1" xmlns="http://www.w3.org/2000/svg" xml:space="preserve"
     style="fill-rule:evenodd;clip-rule:evenodd;stroke-linejoin:round;stroke-miterlimit:2;">
    <path id="pin" d="M116.686,692.375c-72.157,-73.482 -116.686,-174.184 -116.686,-285.204c0,-224.724 182.447,-407.171 407.171,-407.171c224.723,0 407.17,182.447 407.17,407.171c0,110.396 -44.029,210.589 -115.471,283.962c-3.013,3.684 -71.028,86.832 -98.279,119.078c-22.493,26.617 -68.843,78.676 -68.843,78.676c-0,0 -55.215,83.784 -63.516,102.009c-8.301,18.226 -40.085,130.286 -44.949,150.627l-32.815,-1.082c-4.996,-20.78 -36.63,-132.283 -44.908,-150.46c-8.302,-18.225 -63.517,-102.008 -63.517,-102.008c0,-0 -46.35,-52.06 -68.843,-78.677c-25.182,-29.797 -85.172,-103.06 -96.514,-116.921Z"/>
    <circle id="pin-center" cx="406.952" cy="406.376" r="156.12" style="fill:rgb(235,235,235);"/>
</svg>
